<svg xmlns:svg="http://www.w3.org/2000/svg" xmlns="http://www.w3.org/2000/svg" version="1" viewBox="0 0 800 400" height="400" width="800">
<style>
.s0{
	fill:#80e5ff;
	stroke-width:1.1;
	stroke:#80e5ff;
}
.s1{
	fill:#000;
	font-family:sans-serif;
	font-size:42.2;
	letter-spacing:0;
	line-height:125;
	word-spacing:0;
}
.s2{
	font-size:18.5;
}

</style>  <title>
    chart1
  </title>
  <g transform="translate(0,-652.36215)">
    <rect y="665" x="38" height="182" width="104" style="fill:#80e5ff;stroke-width:1.7;stroke:#80e5ff"/>
    <rect y="777" x="164" height="71" width="105" class="s0"/>
    <text transform="scale(0.97678209,1.0237698)" y="858" x="59" class="s1">
      <tspan y="858" x="59" font-size="18.5">
        2010
      </tspan>
    </text>
    <text transform="scale(0.97678209,1.0237698)" y="859" x="193" class="s1">
      <tspan y="859" x="193" font-size="18.5">
        2011
      </tspan>
    </text>
    <text transform="scale(0.97678209,1.0237698)" y="860" x="318" class="s1">
      <tspan y="860" x="318" font-size="18.5">
        2012
      </tspan>
    </text>
    <text transform="scale(0.97678209,1.0237698)" y="860" x="442" class="s1">
      <tspan y="860" x="442" font-size="18.5">
        2013
      </tspan>
    </text>
    <text transform="scale(0.97678209,1.0237698)" y="861" x="567" class="s1">
      <tspan y="861" x="567" font-size="18.5">
        2014
      </tspan>
    </text>
    <text y="857" x="167" style="fill:#000;font-family:sans-serif;font-size:40;letter-spacing:0;line-height:125;word-spacing:0">
      <tspan y="857" x="167"/>
    </text>
    <rect y="813" x="286" height="36" width="105" style="fill:#80e5ff;stroke-width:0.8;stroke:#80e5ff"/>
    <rect y="771" x="406" height="78" width="105" class="s0"/>
    <rect y="723" x="527" height="127" width="105" style="fill:#80e5ff;stroke-width:1.5;stroke:#80e5ff"/>
    <text transform="scale(0.97678209,1.0237698)" y="862" x="695" class="s1">
      <tspan y="862" x="695" font-size="18.5">
        2015
      </tspan>
    </text>
    <rect y="697" x="651" height="155" width="104" style="fill:#80e5ff;stroke-width:1.6;stroke:#80e5ff"/>
  </g>
</svg>
